<svg version="1.0" xmlns="http://www.w3.org/2000/svg"
 width="512.000000pt" height="512.000000pt" viewBox="0 0 512.000000 512.000000"
 preserveAspectRatio="xMidYMid meet">
<g transform="translate(0.000000,512.000000) scale(0.100000,-0.100000)" fill="#000000" stroke="none">
<path d="M2397 4739 c-88 -12 -180 -43 -239 -80 -45 -29 -98 -98 -113 -146 -5
-19 -14 -23 -45 -23 -69 0 -150 -37 -207 -95 -44 -46 -56 -66 -78 -137 -26
-83 -26 -87 -17 -249 9 -160 18 -206 67 -321 6 -15 2 -18 -19 -18 -39 0 -49
-31 -43 -124 6 -85 51 -250 83 -305 11 -19 30 -35 45 -38 25 -5 27 -10 38 -88
17 -120 36 -177 80 -233 39 -48 40 -52 47 -155 l7 -105 -32 -16 c-17 -9 -38
-26 -46 -39 -8 -12 -77 -77 -152 -145 -135 -120 -141 -124 -280 -186 -192 -86
-812 -403 -841 -429 -61 -57 -91 -145 -132 -388 -17 -101 -43 -233 -57 -294
-18 -76 -26 -141 -27 -210 -1 -78 -6 -106 -20 -127 -13 -20 -21 -60 -27 -140
-5 -62 -13 -138 -19 -168 -5 -30 -14 -97 -20 -148 -6 -51 -21 -126 -35 -165
-13 -40 -25 -90 -27 -112 -3 -34 0 -40 18 -43 17 -2 28 11 61 80 22 46 72 138
111 206 63 109 68 122 50 122 -29 0 -78 -35 -106 -74 -27 -38 -27 -36 -7 134
8 69 15 145 15 170 l0 45 30 -50 c34 -57 37 -47 13 38 -16 59 -16 59 7 77 17
13 21 22 15 39 -13 43 -5 159 19 287 14 71 37 204 50 296 28 187 48 273 78
332 19 39 65 96 77 96 4 0 4 -21 2 -47 -3 -46 55 -450 85 -583 8 -36 55 -200
104 -366 49 -165 93 -319 98 -341 11 -48 9 -53 -84 -165 -61 -74 -116 -158
-128 -194 -6 -19 2 -19 350 -20 195 -1 352 2 347 6 -4 3 -61 25 -125 49 -214
76 -202 68 -217 147 -25 127 -109 427 -185 659 -41 127 -90 289 -110 360 -19
72 -51 188 -70 259 -20 71 -36 148 -36 172 0 42 1 43 68 79 110 61 728 375
737 375 5 0 -3 -12 -17 -27 -37 -40 -128 -164 -128 -175 0 -4 25 -24 55 -43
30 -20 55 -40 55 -46 0 -5 -33 -30 -72 -56 -100 -63 -128 -91 -128 -125 0 -39
49 -133 204 -392 208 -348 266 -447 388 -671 98 -178 321 -567 369 -642 13
-21 21 -23 115 -23 l102 0 47 128 c70 193 191 580 230 737 33 135 142 640 184
855 28 138 61 356 61 398 l0 34 118 -109 c150 -139 163 -149 307 -226 112 -60
120 -66 118 -92 -3 -32 -142 -318 -259 -530 -42 -77 -162 -266 -267 -420 -317
-464 -507 -759 -498 -768 5 -5 18 -4 30 2 32 18 197 244 384 528 154 234 175
262 199 263 109 1 709 101 778 129 42 17 3 13 -258 -24 -267 -37 -523 -68
-528 -63 -1 2 10 26 27 54 l29 51 112 6 c62 4 205 12 318 19 113 6 208 14 212
17 10 9 -31 131 -46 137 -8 3 -92 -2 -187 -10 -285 -26 -309 -27 -309 -23 0 3
21 42 46 88 94 168 264 523 264 549 0 34 -26 57 -127 111 -46 24 -83 46 -83
49 0 3 28 23 61 44 34 22 63 45 66 52 5 13 -54 107 -113 181 l-34 41 163 -70
c185 -80 671 -274 711 -284 14 -3 40 -19 56 -34 26 -25 30 -35 30 -84 0 -119
-60 -329 -161 -569 -82 -192 -175 -498 -224 -737 -44 -209 -35 -193 -113 -229
-38 -17 -116 -49 -173 -72 l-104 -40 240 6 c188 5 245 10 263 21 39 25 314
248 376 304 126 116 10 46 -185 -111 -64 -52 -138 -109 -164 -128 l-48 -34 7
86 c13 161 102 466 273 936 124 344 82 277 -104 -164 -48 -113 -62 -139 -57
-105 13 88 43 187 109 360 128 332 147 486 72 569 l-22 24 44 -24 c85 -47 128
-152 143 -359 8 -104 22 -179 59 -327 26 -105 51 -213 55 -240 7 -59 -4 -84
-112 -250 -40 -62 -79 -123 -85 -135 -12 -22 -11 -22 7 -8 84 65 151 133 177
179 l30 53 20 -37 c13 -26 17 -48 13 -70 -4 -17 -70 -137 -147 -266 -77 -129
-154 -261 -170 -294 l-30 -60 95 96 c92 93 179 214 227 311 l22 47 24 -52 c33
-71 108 -281 123 -344 7 -33 17 -53 26 -53 32 0 4 151 -62 339 -40 115 -44
133 -44 222 0 100 -16 167 -47 202 -13 14 -17 40 -18 120 -1 90 -8 127 -57
312 -39 144 -58 237 -61 296 -7 101 -46 231 -89 289 -48 68 -119 103 -438 224
-168 63 -397 153 -510 199 -200 81 -207 85 -305 166 -55 46 -147 128 -205 182
l-105 99 3 95 c3 85 7 102 32 143 28 46 62 159 75 253 6 40 9 45 29 42 40 -8
72 31 122 149 44 102 48 120 48 190 0 85 -19 128 -55 128 -13 0 -19 5 -16 13
47 122 60 187 61 297 0 78 -5 134 -16 173 -9 31 -15 57 -13 57 1 0 15 -19 30
-41 37 -56 50 -41 35 42 -45 250 -248 456 -506 513 -92 20 -250 27 -337 15z
m159 -59 c-48 -10 -90 -21 -93 -24 -3 -2 53 -2 124 1 139 6 232 -8 319 -47 61
-26 54 -32 -16 -13 -79 22 -286 21 -370 -1 -103 -28 -208 -84 -272 -146 -61
-59 -69 -60 -42 -7 30 59 65 97 117 128 58 34 28 29 -44 -7 -50 -25 -94 -71
-115 -119 -9 -19 -13 -24 -14 -12 0 25 34 88 62 114 12 12 57 40 98 63 l75 41
-45 -6 c-102 -16 -183 -72 -228 -160 -28 -54 -29 -16 -1 42 52 108 212 171
434 171 l100 0 -89 -18z m214 -104 c0 -2 -30 -14 -67 -26 -75 -24 -156 -65
-176 -88 -7 -10 4 -7 32 7 23 12 44 21 46 19 4 -4 -163 -130 -180 -137 -5 -2
6 13 24 33 19 20 32 36 28 36 -14 0 -85 -39 -101 -55 -26 -26 -18 -2 12 37 52
69 122 115 232 152 65 22 150 34 150 22z m-280 -20 c0 -2 -18 -15 -40 -30 -57
-38 -118 -94 -153 -141 -22 -31 -28 -34 -22 -15 23 74 141 185 203 189 6 1 12
-1 12 -3z m433 -57 c55 -14 45 -21 -20 -14 -105 12 -261 -37 -362 -112 -44
-34 -29 -4 26 50 85 86 210 112 356 76z m-915 -76 c2 -9 -8 -13 -32 -13 -51 0
-97 -22 -150 -71 -25 -23 -46 -36 -46 -30 0 18 77 97 113 115 36 18 108 17
115 -1z m951 -9 c34 -10 69 -30 95 -54 l41 -39 -57 28 c-94 48 -240 62 -358
35 -23 -5 -24 -4 -5 7 62 39 194 50 284 23z m-949 -59 c0 -2 -37 -26 -82 -52
-45 -26 -97 -61 -117 -77 -30 -27 -33 -28 -22 -8 33 62 145 142 199 142 12 0
22 -2 22 -5z m998 -71 c61 -36 52 -39 -15 -6 -32 16 -65 32 -73 36 -8 3 -1 4
15 0 17 -3 49 -17 73 -30z m-676 -11 l107 -25 93 23 c179 45 269 29 355 -63
53 -59 67 -103 59 -188 -6 -61 -5 -70 17 -96 71 -88 69 -80 74 -278 l4 -182
-46 -230 c-29 -148 -54 -247 -71 -281 -17 -36 -56 -82 -127 -149 -163 -154
-150 -148 -348 -152 -200 -4 -199 -5 -342 122 -158 141 -178 179 -207 383 -11
76 -27 172 -36 213 -12 58 -15 121 -12 276 l3 202 34 48 c34 46 35 51 32 126
-4 116 34 205 105 249 74 45 124 46 306 2z m-352 23 c0 -2 -24 -19 -52 -38
-29 -19 -80 -59 -112 -89 -69 -63 -60 -36 11 33 55 53 153 114 153 94z m1031
-92 c39 -26 71 -67 76 -93 1 -8 5 -26 8 -40 5 -21 1 -18 -21 14 -15 22 -47 64
-71 93 -50 58 -47 65 8 26z m-1135 -104 c-8 -26 -10 -53 -5 -65 14 -36 9 -62
-19 -97 l-27 -35 -3 88 c-3 85 -2 88 29 123 17 20 33 35 35 33 2 -1 -3 -23
-10 -47z m1148 -13 c22 -38 52 -145 43 -154 -2 -2 -9 15 -16 37 -16 55 -31 60
-26 8 6 -63 -8 -77 -29 -29 -17 37 -17 42 -1 84 16 42 16 47 0 77 -24 46 0 27
29 -23z m-1254 -462 c24 -12 30 -22 30 -47 l0 -32 -35 34 c-19 19 -35 41 -35
48 0 16 5 15 40 -3z m1406 0 c1 -5 -15 -25 -37 -44 l-39 -33 0 30 c0 21 8 36
23 47 23 16 49 17 53 0z m12 -102 c-3 -33 -19 -93 -37 -138 -57 -140 -60 -145
-93 -145 -28 0 -29 1 -22 38 4 20 20 52 37 71 27 32 29 39 24 93 -7 81 23 93
40 15 9 -43 24 -12 21 45 -1 40 13 78 29 78 3 0 3 -26 1 -57z m-1396 -8 c4 -5
8 -24 8 -41 0 -18 11 -60 24 -95 13 -35 26 -81 30 -102 7 -38 7 -38 -21 -35
-23 2 -30 10 -40 43 -44 147 -57 196 -61 240 l-5 50 29 -25 c16 -14 32 -29 36
-35z m327 -861 c54 -77 187 -307 222 -382 23 -47 23 -47 27 -17 2 17 2 92 0
168 l-3 137 43 0 c38 0 49 -5 78 -37 l35 -37 -3 -146 -3 -145 -67 -3 c-87 -4
-148 26 -239 117 -118 119 -156 207 -174 396 l-6 70 21 -25 c11 -14 43 -57 69
-96z m746 -121 c-12 -48 -144 -183 -287 -291 -12 -10 -10 4 12 56 41 100 55
125 140 247 43 60 91 135 106 165 l29 55 3 -105 c2 -58 0 -115 -3 -127z m97
-130 c10 -70 9 -93 -5 -159 -16 -73 -136 -364 -162 -392 -9 -10 -25 5 -78 71
-36 46 -99 119 -138 161 -39 42 -70 78 -68 79 187 121 265 188 339 288 32 43
62 89 66 101 7 20 9 18 21 -22 7 -25 18 -82 25 -127z m-856 -21 c46 -60 126
-136 185 -175 l55 -37 -72 -73 c-39 -40 -88 -103 -109 -140 -22 -37 -42 -67
-46 -67 -23 0 -122 196 -140 277 -13 57 0 259 22 338 l11 38 33 -62 c18 -34
46 -79 61 -99z m-164 76 c-23 -70 -38 -138 -48 -211 -6 -45 -13 -53 -146 -182
-77 -74 -145 -135 -152 -135 -16 0 -129 65 -133 76 -2 5 51 75 116 155 83 102
158 181 247 258 70 61 129 109 131 107 3 -3 -4 -33 -15 -68z m1118 16 c30 -30
90 -85 133 -122 81 -68 146 -144 236 -272 59 -85 62 -76 -44 -132 l-63 -32
-58 44 c-32 25 -97 82 -144 127 l-87 82 -7 118 c-4 65 -13 146 -20 181 -8 34
-11 62 -7 62 4 0 31 -25 61 -56z m-1130 -749 c64 -303 93 -426 205 -866 91
-356 194 -730 230 -836 10 -30 -6 -7 -56 80 -245 427 -485 834 -727 1235 -207
343 -229 386 -211 408 7 9 65 51 130 95 75 51 164 125 250 208 l134 128 7
-151 c4 -112 14 -190 38 -301z m544 423 c-10 -15 -64 -19 -83 -6 -18 13 -14
14 34 14 29 -1 51 -4 49 -8z m-404 -268 c22 -33 45 -60 50 -60 9 0 36 27 78
80 11 14 22 23 25 20 3 -3 21 -51 40 -107 l35 -102 -24 -75 c-53 -167 -84
-407 -84 -645 0 -57 -2 -102 -5 -99 -9 8 -174 680 -189 768 -8 47 -19 146 -25
220 -6 74 -14 155 -17 180 -5 44 -4 43 35 -38 22 -45 59 -109 81 -142z m861
89 c-11 -63 -41 -203 -66 -310 -25 -106 -62 -264 -81 -349 -19 -85 -46 -200
-60 -254 -14 -55 -23 -108 -21 -118 3 -10 2 -16 -3 -13 -10 6 -23 -42 -15 -55
4 -6 1 -10 -4 -10 -6 0 -11 -7 -11 -16 0 -9 -13 -59 -29 -112 -17 -54 -32
-106 -34 -117 -4 -24 -11 46 -37 390 -11 143 -29 325 -41 405 -12 84 -19 176
-17 220 4 74 4 76 72 173 l68 98 27 -23 c14 -12 43 -38 64 -58 l39 -35 28 33
c15 18 51 87 81 152 29 66 54 118 56 116 2 -1 -6 -54 -16 -117z"/>
<path d="M1988 3782 c-35 -33 -60 -63 -58 -66 3 -3 34 5 68 18 l63 22 121 -27
c152 -35 142 -30 163 -76 16 -32 19 -62 19 -183 0 -80 3 -134 7 -120 4 14 7
80 8 147 1 91 -3 133 -15 163 -9 22 -20 40 -24 40 -5 0 -6 15 -3 33 l5 34
-131 32 c-72 17 -137 34 -146 37 -9 4 -37 -15 -77 -54z"/>
<path d="M2700 3809 c-58 -15 -117 -28 -131 -28 -36 -1 -57 -27 -41 -51 9 -14
8 -21 -4 -31 -39 -32 -48 -71 -52 -219 -3 -117 -1 -148 10 -158 12 -10 14 10
14 136 -1 137 1 150 24 197 25 50 25 50 85 57 33 3 92 15 130 26 l71 20 64
-24 c36 -13 70 -22 75 -20 14 5 -109 126 -126 125 -8 -1 -61 -14 -119 -30z"/>
<path d="M2095 3687 c-16 -7 -41 -18 -54 -26 l-24 -13 33 -14 c37 -16 52 -18
30 -4 -12 8 -12 10 4 16 19 7 42 -16 26 -26 -5 -3 11 -7 36 -8 33 -1 50 4 65
19 19 19 24 20 48 8 14 -7 29 -15 34 -17 18 -9 4 22 -22 49 -26 26 -36 29 -88
28 -32 0 -71 -6 -88 -12z"/>
<path d="M2601 3674 c-17 -14 -31 -32 -31 -40 0 -12 7 -11 36 4 36 19 36 19
60 -5 29 -29 63 -29 98 -2 18 14 31 18 39 12 7 -6 23 -7 37 -3 23 7 21 9 -30
33 -77 38 -166 38 -209 1z"/>
<path d="M2918 3282 c-33 -35 -78 -125 -116 -234 -17 -48 -41 -106 -53 -130
l-21 -43 24 23 c28 25 48 68 108 222 23 58 52 122 66 143 31 47 27 57 -8 19z"/>
<path d="M2292 3288 c-18 -18 -14 -53 8 -73 20 -18 20 -18 14 -1 -5 12 8 7 40
-18 29 -22 59 -36 76 -36 36 0 110 48 110 72 0 22 -36 24 -64 3 -27 -20 -55
-19 -94 5 -18 11 -44 20 -58 20 -22 0 -23 2 -14 20 12 22 1 27 -18 8z"/>
<path d="M2568 3270 c2 -17 -1 -37 -8 -45 -21 -25 -1 -31 22 -7 18 18 20 26
13 48 -14 39 -33 42 -27 4z"/>
<path d="M1943 3228 c14 -24 48 -94 76 -156 47 -104 109 -208 118 -198 8 8
-117 258 -162 326 -51 77 -71 94 -32 28z"/>
<path d="M2390 3048 c-103 -7 -211 -30 -194 -41 8 -5 419 -11 508 -7 5 0 3 6
-3 14 -6 7 -39 16 -74 19 -34 4 -80 10 -102 14 -22 5 -83 5 -135 1z"/>
<path d="M2317 2928 c9 -10 24 -20 34 -23 22 -7 25 -25 5 -25 -8 0 -17 -3 -19
-7 -3 -5 41 -7 96 -5 93 3 100 5 77 17 -14 8 -19 14 -12 15 7 0 28 10 46 23
l33 22 -138 0 c-129 0 -137 -1 -122 -17z"/>
<path d="M1595 1719 c-67 -42 -70 -45 -55 -64 11 -14 18 -13 59 11 61 35 73
47 65 67 -8 22 -11 22 -69 -14z"/>
<path d="M3231 1697 c-13 -17 -9 -21 68 -66 49 -29 81 -34 81 -14 0 4 -21 21
-48 37 -26 17 -56 36 -68 43 -18 11 -23 11 -33 0z"/>
<path d="M646 1650 c-13 -93 24 -292 74 -403 11 -23 20 -40 20 -36 0 3 -14 68
-31 145 -17 76 -36 186 -43 244 l-13 105 -7 -55z"/>
<path d="M603 737 c34 -30 92 -76 127 -102 96 -71 237 -130 165 -69 -51 43
-327 224 -341 224 -8 0 14 -24 49 -53z"/>
<path d="M3849 746 c-2 -3 -107 -32 -233 -65 -127 -34 -232 -64 -235 -67 -8
-8 72 4 194 28 110 21 265 70 298 93 21 15 21 15 1 15 -11 0 -23 -2 -25 -4z"/>
</g>
</svg>
